<svg xmlns="http://www.w3.org/2000/svg" xmlns:xlink="http://www.w3.org/1999/xlink" version="1.1" x="0px" y="0px" viewBox="0 0 90 112.5" enable-background="new 0 0 90 90" xml:space="preserve"><path d="M23.905,78.05c-0.427-0.11-1.33-0.435-2.305-1.346l1.451-1.247l2.32,1.872L23.905,78.05z M20.753,67.203  c2.26-3.68,8.706-7.405,12.98-9.874c1.434-0.828,2.671-1.544,3.27-1.989c1.573-1.171,1.994-1.692,3.39-3.418  c0.645-0.797,1.527-1.889,2.82-3.409c3.68-4.324,7.811-5.663,8.849-5.943c0.501-0.703,1.097-1.415,1.76-2.113  c-1.602,0.461-3.008,0.741-3.672,0.862c-0.877,0.16-3.283,1.316-5.886,3.388c-1.369,1.089-1.62,1.438-2.293,2.37  c-0.524,0.726-1.241,1.719-2.814,3.554c-3.505,4.089-9.797,7.744-13.557,9.927c-0.249,0.145-0.487,0.283-0.714,0.415  c-3.335,1.945-9.796,3.857-11.243,4.273l3.798,4.325l0.878-2.061l0.479,0.084C19.984,67.803,20.607,67.334,20.753,67.203z   M81.653,14.398c0-1.007-0.962-2.48-1.589-3.334c0.096,0.046,0.156,0.083,0.156,0.083c1.832,1.527,2.697,2.697,2.595,4.428  c-0.102,1.73-2.087,6.158-2.087,6.158l-0.102,0.916l-1.221,2.545l-1.12,0.102l-0.204,0.611l0.763,0.56c0,0-1.12,1.934-1.272,2.29  c-0.153,0.356-1.17-0.051-1.17-0.051l-0.407,0.509l-1.171,0.153l0.56,0.967l-0.611,1.12l0.662,0.662l-1.934,3.155l-1.374-0.458  l-1.527,1.832l0.967,1.374L69.787,39.8l-0.916-0.611l-0.662,0.56c0,0-1.069-0.865-1.578-0.356c-0.662,0.662-0.051,1.679,0.051,1.985  c0.102,0.305-0.458,0.56-0.458,0.56l0.916,1.018c0,0-2.087,1.883-2.239,2.036c-0.153,0.153-0.916-0.814-0.916-0.814L62.662,45.5  c0.458,1.069,0.254,1.578,0.254,1.578l-5.394,2.748l-1.018-0.204c-5.649,2.087-6.361,6.463-6.361,6.463l-0.916,1.73  c0.611,1.832-0.916,3.562-0.916,3.562l-11.298,11.4l-3.155,2.545l-6.667,4.733l-1.985-0.763l-0.356-0.865l1.679-1.476  c-0.662-1.578-2.494-2.087-2.494-2.087c-0.967-0.458-1.832,0.102-1.832,0.102l-1.628,1.018l-0.814-0.916l-0.254-1.272l-1.476-2.188  l0.299-0.996l0.745-1.75c1.718,0.121,2.58-0.824,2.619-0.867l0.038-0.043l0.03-0.049c2.058-3.431,8.393-7.091,12.584-9.512  c1.527-0.882,2.733-1.579,3.389-2.068c1.697-1.264,2.179-1.86,3.61-3.63c0.64-0.792,1.517-1.877,2.801-3.385  c3.876-4.554,8.373-5.591,8.417-5.6l0.237-0.051l0.137-0.199c1.591-2.309,4.305-4.756,7.083-6.384  c2.947-1.727,8.057-6.183,12.149-10.595c3.897-4.201,9.303-11.532,9.357-11.606l0.091-0.124l0.022-0.152  C81.649,14.531,81.653,14.466,81.653,14.398z M43.178,55.398c0,0-9.827,9.135-11.802,11.111c-1.975,1.975-0.494,3.259-0.346,3.407  c0.197,0.198,1.613,1.448,3.391,0.164c1.778-1.284,9.843-9.843,10.683-11.078c0.839-1.235,1.481-2.173,0.494-3.358  C44.61,54.459,43.178,55.398,43.178,55.398z M61.415,40.24l-3.366,3.008c-0.584,0.522-0.634,1.419-0.112,2.003  c0.522,0.584,1.419,0.634,2.003,0.112l3.366-3.008c0.584-0.522,0.634-1.419,0.112-2.003C62.896,39.769,61.999,39.718,61.415,40.24z   M69.675,31.544l-2.818,3.544c-0.489,0.615-0.387,1.51,0.228,1.999c0.615,0.489,1.51,0.387,1.999-0.228l2.818-3.544  c0.489-0.615,0.387-1.51-0.228-1.999C71.059,30.827,70.164,30.929,69.675,31.544z M60.799,17.709  c0.321-0.181,0.621-0.358,0.901-0.531c4.245-2.827,8.12-5.045,10.707-6.132c0.431-0.226,0.859-0.43,1.298-0.611  c0.047-0.019,0.094-0.035,0.141-0.054c0.104,2.282-1.916,4.987-3.875,7.611c-1.241,1.662-2.519,3.375-3.325,5.051  c-0.005,0.005-0.011,0.009-0.016,0.015c-3.959,4.497-10.458,8.033-19.867,10.81c-6.337,1.87-10.334,7.326-10.498,7.552  c-0.869,1.179-5.546,7.167-12.308,9.244c-5.135,1.577-10.333,1.514-12.079,1.436c-0.108-0.941-0.953-1.782-1.608-2.434  c-0.184-0.183-0.357-0.355-0.48-0.497c-0.386-0.446-0.356-1.403-0.314-1.702c0.012-0.08,0.006-0.159-0.012-0.233  c0.245-0.047,0.523-0.042,0.831,0.046c1.369,0.391,7.965,3.831,11.174-2.121c0.002-0.049,0.009-0.099,0.023-0.148  c0.303-1.002,0.592-2.323,0.856-3.743c0.393-1.979,0.689-4.194,0.893-5.991c-0.002,0.116-0.004,0.233-0.007,0.349  c0.294-2.169,0.475-3.815,0.488-3.934c-0.021-0.755-0.032-1.678-0.032-1.678s4.158-2.534,5.838-2.585  c1.679-0.051,2.545-0.305,3.257-0.712c0.712-0.407,2.239-1.018,3.919-1.069c1.679-0.051,2.494-0.458,3.053-0.814  c0.56-0.356,1.221-1.221,2.036-1.527c0.814-0.305,2.443-0.102,2.901-0.356c0.458-0.254,2.137-1.934,3.104-1.985  c0.967-0.051,2.545-0.407,2.85-0.814c0.305-0.407,3.155-1.221,4.835-1.069c1.679,0.153,3.003-1.578,3.715-1.374  C59.198,17.709,60.464,17.474,60.799,17.709z M57.903,22.09l0.761-0.297c0.809-0.423,2.191-1.313,2.544-1.955  c0.175-0.32,0.301-0.754,0.387-1.173c-1.194,0.683-2.66,1.41-4.311,2.159L57.903,22.09z M52.294,24.279l2.939-1.147l-0.569-1.165  c-0.953,0.402-1.946,0.807-2.965,1.212C51.909,23.555,52.108,23.923,52.294,24.279z M46.389,26.584l3.225-1.259  c-0.19-0.358-0.392-0.726-0.606-1.1c-1.074,0.41-2.165,0.816-3.259,1.217C45.981,25.82,46.194,26.203,46.389,26.584z M40.877,28.735  l2.836-1.107c-0.217-0.404-0.456-0.806-0.718-1.193c-0.875,0.311-1.745,0.617-2.602,0.916C40.58,27.814,40.74,28.278,40.877,28.735z   M35.1,30.99l3.107-1.212c-0.139-0.496-0.309-1-0.518-1.496c-0.984,0.335-1.941,0.657-2.86,0.963  C34.94,29.819,35.03,30.403,35.1,30.99z M28.771,33.46l3.57-1.394c-0.057-0.645-0.138-1.291-0.248-1.92  c-1.316,0.43-2.503,0.812-3.512,1.134C28.669,32.002,28.73,32.733,28.771,33.46z M24.542,35.11l1.414-0.552  c-0.023-0.8-0.071-1.607-0.152-2.403c-0.413,0.128-0.679,0.21-0.774,0.24c-0.052,0.016-0.104,0.022-0.156,0.024  C24.807,33.001,24.693,33.956,24.542,35.11z M25.321,43.967c0.117-0.721,0.642-4.193,0.652-8.101l-1.043,0.407  c-0.184,0.072-0.381,0.046-0.538-0.048c-0.358,2.594-0.866,5.805-1.448,8.121C23.551,44.298,24.373,44.194,25.321,43.967z   M32.425,33.348l-3.604,1.407c0.076,3.262-0.226,6.323-0.46,8.143c1.149-0.548,2.337-1.296,3.461-2.318  c0.095-0.087,0.19-0.174,0.284-0.261c0.002-0.014,0.002-0.028,0.004-0.042C32.118,40.229,32.584,36.955,32.425,33.348z   M38.491,30.98l-3.269,1.276c0.136,1.82,0.109,3.589,0.03,5.034c1.141-1.103,2.306-2.185,3.563-3.166  C38.813,33.657,38.774,32.433,38.491,30.98z M45.035,30.775c-0.187-0.575-0.444-1.288-0.782-2.044l-3.065,1.196  c0.193,0.858,0.31,1.661,0.38,2.344C42.635,31.67,43.781,31.16,45.035,30.775z M51.434,29.214c-0.242-0.599-0.667-1.596-1.259-2.795  l-3.259,1.272c0.408,0.927,0.709,1.785,0.916,2.45C49.088,29.896,50.291,29.58,51.434,29.214z M57.044,26.839l-1.271-2.603  l-2.924,1.141c0.6,1.23,1.026,2.241,1.27,2.851C55.162,27.792,56.14,27.323,57.044,26.839z M62.958,17.813  c-0.054,0.562-0.219,1.78-0.677,2.613c-0.652,1.188-2.836,2.341-3.083,2.468l-0.058,0.026l-0.698,0.272l1.066,2.182  c1.152-0.759,2.112-1.505,2.849-2.167c2.244-2.014,6.78-7.295,9.018-10.344C69.097,13.982,66.154,15.71,62.958,17.813z   M75.077,10.555c0,2.649-2.093,5.45-4.125,8.171c-1.318,1.764-2.68,3.589-3.401,5.283c-0.585,1.376-1.096,2.732-1.53,3.998  c-0.003,0.121-0.041,0.241-0.117,0.345c-0.436,1.297-0.787,2.491-1.052,3.505c2.137-1.864,4.424-4.064,6.419-6.215  c3.539-3.815,8.359-10.272,9.156-11.346c-0.064-0.58-0.891-1.948-1.705-2.971c-0.167-0.21-0.171-0.493-0.036-0.708  c-1.091-0.594-2.326-0.817-3.639-0.579C75.067,10.211,75.077,10.383,75.077,10.555z M21.398,39.663  c0.499-2.961,0.834-6.274,0.965-7.976l-0.022-0.738c-2.034,0.457-3.847,0.862-4.819,1.267c-1.221,0.509-1.086,1.561-1.086,1.561  c-0.509,0.305-1.052,0.678-1.052,0.678l1.221,2.545C17.312,38.349,19.717,39.211,21.398,39.663z M59.401,36.015  c1.044-0.612,2.404-1.612,3.904-2.845c-0.002-0.051,0-0.102,0.011-0.154c0.152-0.705,0.369-1.573,0.65-2.554  c-0.291,0.292-0.498,0.493-0.522,0.516c-2.835,2.722-7.265,4.95-13.547,6.813c-0.494,0.146-1.061,0.327-1.786,0.567  c-3.008,0.997-5.555,3.397-6.779,4.551c-0.256,0.241-0.458,0.432-0.616,0.565c-0.805,0.682-1.17,1.151-1.774,1.927  c-0.533,0.684-1.196,1.535-2.43,2.883c-3.066,3.35-7.847,6.811-11.627,8.416c-5.071,2.154-12.34,2.6-12.646,2.618l-0.017,0.001  l-1.786,0.053l0.114,0.48c1.536,2.014,2.202,3.523,2.474,4.299c0.003-0.001,0.005-0.002,0.008-0.003  c0.076-0.021,7.685-2.158,11.239-4.231c0.227-0.132,0.466-0.271,0.715-0.416c3.692-2.145,9.872-5.734,13.242-9.665  c1.54-1.796,2.24-2.766,2.751-3.474c0.703-0.973,1.023-1.417,2.524-2.612c2.636-2.098,5.23-3.416,6.429-3.635  c0.919-0.167,3.306-0.648,5.605-1.504c0.092-0.034,0.186-0.042,0.277-0.033C56.943,37.618,58.167,36.738,59.401,36.015z   M64.813,27.76c0.197-0.582,0.411-1.182,0.64-1.795c-4.159,3.69-10.196,6.674-18.343,9.078c-5.939,1.753-9.817,7.046-9.855,7.1  c-0.912,1.238-5.808,7.503-12.938,9.692c-6.052,1.859-12.003,1.534-13.016,1.461c-0.391,0.157-1.705,0.734-2.332,1.657  c-0.103,0.152-0.263,0.24-0.432,0.261l1.467,2.978c0.059-0.021,0.121-0.036,0.188-0.038l1.984-0.059  c0.285-0.018,7.431-0.483,12.231-2.522c3.636-1.544,8.242-4.882,11.202-8.116c1.201-1.313,1.848-2.143,2.367-2.809  c0.608-0.78,1.047-1.344,1.948-2.108c0.133-0.113,0.325-0.294,0.568-0.522c1.288-1.214,3.968-3.74,7.233-4.822  c0.738-0.244,1.317-0.428,1.823-0.578c6.005-1.781,10.395-3.974,13.045-6.52C62.608,30.083,64.082,28.651,64.813,27.76z   M7.177,52.453l0.847,1.72c0.747-1.028,2.02-1.67,2.635-1.936c-0.06-0.517-0.764-1.217-1.252-1.703  c-0.2-0.199-0.389-0.387-0.541-0.563c-0.486-0.561-0.615-1.334-0.635-1.908c-0.082,0.109-0.124,0.184-0.124,0.184l-0.785,2.166"/><text x="0" y="105" fill="#000000" font-size="5px" font-weight="bold" font-family="'Helvetica Neue', Helvetica, Arial-Unicode, Arial, Sans-serif">Created by Dmitry Kudinov</text><text x="0" y="110" fill="#000000" font-size="5px" font-weight="bold" font-family="'Helvetica Neue', Helvetica, Arial-Unicode, Arial, Sans-serif">from the Noun Project</text></svg>